# xmcd
#
# Track frame offsets:
#	150
#	18260
#	39330
#	58380
#	74769
#	94478
#	116108
#	139656
#	161596
#	175037
#	193863
#	211527
#	230733
#	250873
#	267149
#	289150
#	307500
#	328078
#
# Disc length: 4576 seconds
#
# Revision: 1
# Processed by: cddbd v1.5.2PL0 Copyright (c) Steve Scherf et al.
# Submitted via: audiograbber 1.83.01
#
DISCID=0811de12
DTITLE=John Hiatt - Greatest Hits The A and M Years 87 - 94
DYEAR=1900
DGENRE=
TTITLE0=Memphis In The Meantime
TTITLE1=Perfectly Good Guitar
TTITLE2=Thing Called Love
TTITLE3=Slow Turning
TTITLE4=Real Fine Love
TTITLE5=Through Your Hands
TTITLE6=Buffalo River Home
TTITLE7=Feels Like Rain
TTITLE8=Tennessee Plates
TTITLE9=Thank You Girl
TTITLE10=Drive South
TTITLE11=Lipstick Sunset
TTITLE12=Child Of The Wild Blue Yonder
TTITLE13=Paper Thin
TTITLE14=The Rest Of The Dream
TTITLE15=Have A Little Faith In Me
TTITLE16=Something Wild
TTITLE17=Angel Eyes ( Live )
EXTD=
EXTT0=
EXTT1=
EXTT2=
EXTT3=
EXTT4=
EXTT5=
EXTT6=
EXTT7=
EXTT8=
EXTT9=
EXTT10=
EXTT11=
EXTT12=
EXTT13=
EXTT14=
EXTT15=
EXTT16=
EXTT17=
PLAYORDER=
